# xmcd
#
# Track frame offsets:
#	150
#	18317
#	37869
#	62108
#	79978
#	103381
#	122851
#	140910
#	157530
#	178194
#	194509
#	215387
#	232120
#	253574
#	275676
#	292600
#	303030
#	315970
#
# Disc length: 4415 seconds
#
# Revision: 1
# Processed by: cddbd v1.5.2PL0 Copyright (c) Steve Scherf et al.
# Submitted via: audiograbber 1.83.01
#
DISCID=fb113d12
DTITLE=Diverse Interpreten - Best of Superstars CD 2
DYEAR=1900
DGENRE=
TTITLE0=Bee Gees - You win again
TTITLE1=Rod Stewart -  Sailing
TTITLE2=Joe Cocker - Don´t you love me anymore
TTITLE3=Genesis - Follow you follow me
TTITLE4=R.E.M. - Man on the moon
TTITLE5=Mick Jagger - Sweet thing
TTITLE6=Take that - Back for good
TTITLE7=Simply Red - Say you love me
TTITLE8=Phil Collins - Do you remember
TTITLE9=Mike Oldfield - Moonlight shadow
TTITLE10=Bette Midler - From a distance
TTITLE11=Alphaville - Forever young
TTITLE12=Santana and Willie Nelson - They all went to mexico
TTITLE13=4 Non Blondes - What´s up
TTITLE14=UB 40 - Kingston town
TTITLE15=Fleetwood Mac - Don´t stop
TTITLE16=A-HA - Take on me
TTITLE17=Vangelis - Conquest of paradise
EXTD=
EXTT0=
EXTT1=
EXTT2=
EXTT3=
EXTT4=
EXTT5=
EXTT6=
EXTT7=
EXTT8=
EXTT9=
EXTT10=
EXTT11=
EXTT12=
EXTT13=
EXTT14=
EXTT15=
EXTT16=
EXTT17=
PLAYORDER=
